<?xml version="1.0" encoding="utf-8"?>
<svg viewBox="-95 -4 595 503" xmlns="http://www.w3.org/2000/svg">
  <rect x="-96.628" y="-4.308" width="596.213" height="503.705" style="stroke-linecap: round;"/>
  <path style="stroke: rgb(0, 0, 0); fill: rgb(255, 255, 255);" d="M 292.637 198.644 C 290.968 177.141 298.42 133.65 306.383 122.342 C 316.057 105.016 340.954 87.584 363.33 90.038 C 373.002 91.087 368.968 115.687 379.587 138.575 C 385.078 123.179 383.516 100.342 392.621 90.109 C 396.67 85.557 398.02 103.021 401.874 107.16 C 406.44 103.013 403.703 91.247 408.313 90.359 C 411.403 89.763 422.212 104.942 424.278 107.819 C 445.441 137.303 438.656 182.865 438.616 195.436"/>
  <path style="stroke: rgb(255, 255, 255); fill: none;" d="M -61.599 -5.314 C -52.804 -2.383 -55.141 13.977 -48.231 20.886 C -43.298 25.82 -41.911 37.612 -39.675 46.553 C -38.451 51.452 -37.446 65.358 -34.328 68.476 C -32.335 70.47 -33.942 75.815 -32.189 77.567 C -30.348 79.407 -32.176 85.601 -30.05 87.726 C -27.583 90.194 -29.216 99.019 -27.377 102.699 C -25.395 106.664 -27.955 115.74 -25.773 119.811 C -22.317 126.262 -24.992 127.49 -20.96 137.455 C -20.471 138.665 -20.425 142.777 -20.425 144.407 C -20.425 149.691 -19.891 155.871 -19.891 161.518 C -19.891 162.71 -17.977 172.523 -17.219 173.282 C -15.046 175.455 -13.881 163.529 -13.475 163.123 C -12.308 161.956 -11.602 150.169 -10.8 148.685 C -7.029 141.705 -10.265 142.784 -6.522 134.782 C -4.604 130.682 -5.927 128.181 -4.383 123.552 C -3.518 120.957 -1.853 113.143 -0.641 110.72 C 3.229 102.979 0.011 91.237 3.637 83.983 C 5.376 80.504 3.727 72.665 6.31 70.08 C 7.113 69.279 5.509 66.07 6.31 65.269 C 9.871 61.707 6.71 52.035 10.053 48.692 C 11.841 46.905 9.263 39.857 11.123 37.998 C 14.811 34.311 12.529 25.364 16.47 21.421 C 21.069 16.823 19.67 6.457 24.491 1.637 C 25.082 1.046 25.946 -4.245 26.63 -4.245"/>
  <path style="fill: none; stroke: rgb(255, 255, 255);" d="M -97.952 429.108 C -97.952 419.169 -98.199 405.828 -92.07 399.699 C -89.753 397.382 -90.644 391.856 -88.327 389.539 C -87.257 388.47 -88.327 385.261 -87.257 384.192 C -83.417 380.351 -82.989 372.437 -79.236 368.685 C -75.123 364.573 -73.787 355.533 -69.076 353.179 C -65.281 351.281 -61.996 345.563 -58.917 342.484 C -57.395 340.963 -58.112 337.402 -56.778 336.067 C -56.511 335.801 -51.733 334.696 -50.896 335.533 C -46.261 340.167 -44.302 347.475 -39.666 352.109 C -37.573 354.202 -39.37 360.961 -36.994 363.337 C -33.392 366.939 -32.785 373.428 -28.973 377.24 C -26.188 380.025 -26.658 385.436 -23.625 388.47 C -20.217 391.877 -22.87 402.057 -19.348 405.581 C -14.876 410.053 -15.04 418.444 -10.792 422.691 C -8.716 424.767 -9.896 430.539 -7.584 432.851 C -3.899 436.536 -1.662 444.12 2.042 447.824 C 4.461 450.243 2.585 456.386 5.25 459.053 C 9.89 463.693 12.204 470.289 15.41 476.699 C 18.427 482.733 13.534 491.935 18.082 496.483 C 18.711 497.11 17.945 500.089 18.617 500.761 C 21.168 503.31 19.946 509.576 22.895 512.525 C 26.568 516.196 25.036 524.29 28.777 528.032 C 29.83 529.084 28.925 532.457 29.846 533.378 C 30.476 534.008 33.055 538.951 33.055 539.795"/>
  <path style="fill: none; stroke: rgb(255, 255, 255);" d="M -98.465 4.147 C -90.474 4.147 -94.945 15.155 -90.98 19.12 C -88.328 21.771 -86.507 24.32 -84.563 28.209 C -83.007 31.321 -85.667 36.162 -84.029 39.438 C -81.376 44.743 -82.215 51.946 -78.681 55.48 C -77.701 56.46 -79.126 59.847 -78.147 60.828 C -77.001 61.974 -76.604 57.146 -76.542 57.084 C -73.423 53.965 -77.522 43.628 -74.404 40.508 C -72.326 38.43 -74.015 32.634 -71.73 30.348 C -69.501 28.121 -71.82 21.347 -69.591 19.12 C -66.516 16.043 -68.522 1.06 -68.522 -4.408"/>
  <g transform="matrix(1, 0, 0, 1, -119.25995635986328, 348.7057495117188)">
    <ellipse style="stroke: rgb(0, 0, 0); fill: rgb(255, 255, 255);" cx="41.018" cy="55.636" rx="1.604" ry="1.604"/>
    <ellipse style="stroke: rgb(0, 0, 0); fill: rgb(255, 255, 255);" cx="45.686" cy="55.041" rx="1.604" ry="1.604"/>
    <ellipse style="stroke: rgb(0, 0, 0); fill: rgb(255, 255, 255);" cx="50.929" cy="54.729" rx="1.604" ry="1.604"/>
    <ellipse style="stroke: rgb(0, 0, 0); fill: rgb(255, 255, 255);" cx="55.597" cy="53.656" rx="1.604" ry="1.604"/>
    <ellipse style="fill: none; stroke: rgb(255, 255, 255);" cx="43.017" cy="61.198" rx="1.882" ry="1.845"/>
    <ellipse style="stroke: rgb(0, 0, 0); fill: rgb(255, 255, 255);" cx="42.583" cy="67.446" rx="1.604" ry="1.604"/>
    <ellipse style="stroke: rgb(0, 0, 0); fill: rgb(255, 255, 255);" cx="47.848" cy="67.089" rx="1.604" ry="1.604"/>
    <ellipse style="stroke: rgb(0, 0, 0); fill: rgb(255, 255, 255);" cx="52.375" cy="66.299" rx="1.604" ry="1.604"/>
    <ellipse style="stroke: rgb(0, 0, 0); fill: rgb(255, 255, 255);" cx="56.327" cy="65.823" rx="1.604" ry="1.604"/>
  </g>
  <ellipse style="fill: none; stroke: rgb(255, 255, 255);" cx="26.12" cy="168.391" rx="4" ry="4"/>
  <path style="fill: none; stroke: rgb(255, 255, 255);" d="M 21.63 168.905 C 21.322 168.95 16.992 168.826 13.64 171.118 C 8.96 174.246 8.561 175.645 8.326 177.794"/>
  <path style="stroke: rgb(255, 255, 255); fill: none; stroke-linecap: round;" d="M 8.33 177.421 C 7.178 181.045 3.314 187.431 3.338 187.455 C 3.396 187.513 5.209 187.5 5.646 187.5"/>
  <path style="stroke: rgb(255, 255, 255); fill: none; stroke-linecap: round;" d="M 8.565 177.609 C 9.297 181.232 9.578 186.724 9.601 186.747 C 9.66 186.806 11.472 186.793 11.91 186.793"/>
  <path style="fill: none; stroke: rgb(255, 255, 255); stroke-linecap: round;" d="M 20.997 169.511 C 20.997 170.622 21.882 180.349 21.516 182.556 C 21.338 183.623 20.352 185.851 20.244 185.851"/>
  <path style="fill: none; stroke: rgb(255, 255, 255); stroke-linecap: round;" d="M 23.141 171.229 C 23.442 173.043 26.464 179.227 26.064 181.353 C 25.863 182.417 25.654 184.553 25.547 184.553"/>
  <ellipse style="fill: none; stroke: rgb(255, 255, 255);" cx="55.929" cy="160.327" rx="4" ry="4"/>
  <path style="fill: none; stroke: rgb(255, 255, 255);" d="M 52.44 161.176 C 52.132 161.219 51.987 159.464 48.346 162.61 C 44.515 165.922 46.493 170.697 46.259 172.846"/>
  <path style="stroke: rgb(255, 255, 255); fill: none; stroke-linecap: round;" d="M 45.929 170.471 C 44.777 174.094 41.581 182.483 41.603 182.507 C 41.663 182.565 43.475 182.552 43.912 182.552"/>
  <path style="stroke: rgb(255, 255, 255); fill: none; stroke-linecap: round;" d="M 45.831 170.658 C 46.563 174.283 47.511 181.776 47.535 181.799 C 47.593 181.858 49.405 181.844 49.843 181.844"/>
  <path style="fill: none; stroke: rgb(255, 255, 255); stroke-linecap: round;" d="M 51.029 161.336 C 51.029 162.448 49.8 168.168 49.434 170.374 C 49.256 171.442 49.381 176.008 49.274 176.008"/>
  <path style="fill: none; stroke: rgb(255, 255, 255); stroke-linecap: round;" d="M 52.394 162.385 C 52.466 164.2 52.84 169.603 53.314 171.73 C 53.552 172.786 54.907 175.711 54.8 175.711"/>
  <ellipse style="fill: none; stroke: rgb(255, 255, 255);" cx="79.733" cy="151.354" rx="4" ry="4"/>
  <path style="fill: none; stroke: rgb(255, 255, 255);" d="M 77.834 154.68 C 74.001 161.123 76.213 165.435 75.979 167.585"/>
  <path style="stroke: rgb(255, 255, 255); fill: none; stroke-linecap: round;" d="M 75.88 167.18 C 74.729 170.805 71.532 179.191 71.556 179.215 C 71.614 179.273 73.426 179.261 73.864 179.261"/>
  <path style="stroke: rgb(255, 255, 255); fill: none; stroke-linecap: round;" d="M 75.782 167.368 C 76.044 168.667 77.396 171.372 77.662 173.142 C 78.135 176.313 77.47 178.495 77.485 178.509 C 77.543 178.567 79.357 178.554 79.794 178.554"/>
  <path style="fill: none; stroke: rgb(255, 255, 255); stroke-linecap: round;" d="M 77.037 154.797 C 77.037 155.909 73.257 160.354 72.891 162.56 C 72.712 163.628 72.489 167.729 72.382 167.729"/>
  <path style="fill: none; stroke: rgb(255, 255, 255); stroke-linecap: round;" d="M 77.474 155.382 C 77.545 157.197 76.644 160.977 77.119 163.103 C 77.355 164.16 78.711 167.084 78.604 167.084"/>
  <path style="fill: none; stroke: rgb(255, 255, 255);" d="M 70.161 165.912 C 69.134 165.586 83.526 170.629 82.803 170.369"/>
  <ellipse style="fill: none; stroke: rgb(255, 255, 255);" cx="128.925" cy="145.224" rx="4" ry="4"/>
  <path style="fill: none; stroke: rgb(255, 255, 255);" d="M 127.391 149.594 C 128.106 156.039 126.471 160.367 126.079 162.516"/>
  <path style="stroke: rgb(255, 255, 255); fill: none; stroke-linecap: round;" d="M 126.316 160.885 C 125.839 162.387 124.977 167.458 124.172 169.664 C 123.035 172.776 121.642 174.132 121.656 174.147 C 121.714 174.206 123.527 174.193 123.964 174.193"/>
  <path style="stroke: rgb(255, 255, 255); fill: none; stroke-linecap: round;" d="M 126.338 160.934 C 126.635 162.401 130.458 166.178 130.749 168.165 C 131.177 171.076 130.298 173.737 130.317 173.742 C 130.503 173.802 132.877 172.231 133.009 172.231"/>
  <path style="fill: none; stroke: rgb(255, 255, 255); stroke-linecap: round;" d="M 127.138 149.729 C 127.138 150.841 121.991 153.161 121.626 155.367 C 121.446 156.435 122.893 160.232 122.785 160.232"/>
  <path style="fill: none; stroke: rgb(255, 255, 255); stroke-linecap: round;" d="M 127.576 150.315 C 127.646 152.128 129.74 156.71 131.47 158.035 C 132.4 158.746 134.001 153.198 133.712 154.123"/>
  <path style="fill: none; stroke: rgb(255, 255, 255);" d="M 294.492 197.346 C 285.507 206.331 277.798 211.275 266.18 217.084 C 254.687 222.83 237.123 224.821 230.1 231.844 C 228.598 233.345 223.407 232.457 221.353 233.484 C 212.945 237.688 202.283 234.272 194.02 238.404 C 186.64 242.094 180.791 248.572 173.793 252.07 C 164.071 256.932 164.789 257.666 156.3 261.91 C 149.863 265.128 130.391 271.966 125.687 276.67 C 120.892 281.465 67.049 276.353 59.54 278.857 C 22.228 291.295 35.794 301.27 -3.873 301.27 C -17.644 301.27 -40.296 304.207 -47.606 296.897 C -49.356 295.148 -62.448 296.897 -65.1 296.897 C -70.17 296.897 -78.323 297.887 -80.953 295.257 C -81.157 295.053 -84.201 296.032 -84.405 296.236 C -85.589 297.421 -86.875 298.993 -88.06 300.177 C -91.386 303.504 -97.289 304.55 -103.913 304.55"/>
  <path style="fill: none; stroke: rgb(255, 255, 255);" d="M 437.718 194.993 C 445.377 196.822 463.283 200.815 467.697 205.114 C 472.61 209.899 478.039 209.637 483.206 214.804 C 485.575 217.173 490.677 216.808 493.046 219.177 C 494.062 220.193 498.363 226.831 500.153 226.831"/>
</svg>