<?xml version="1.0" encoding="utf-8"?>
<svg version="1.0" preserveAspectRatio="xMinYMin" viewBox="-0.01 -0.05 75 40.03" xmlns="http://www.w3.org/2000/svg" xmlns:bx="https://boxy-svg.com">
  <defs>
    <linearGradient id="gradient-1" bx:pinned="true">
      <stop offset="0" style="stop-color: rgb(255, 92, 0);"/>
      <stop offset="1" style="stop-color: rgb(212, 21, 0);"/>
    </linearGradient>
  </defs>
  <rect x="-0.008" y="-0.052" width="75" height="40.035" style="fill: rgb(0, 0, 0);"/>
  <path d="M 44.154 7.421 C 42.159 7.556 40.239 7.811 39.024 8.096 C 37.809 8.381 37.659 8.456 37.074 9.116 C 36.714 9.506 35.979 10.466 35.424 11.246 C 34.239 12.911 34.089 13.061 32.559 13.991 C 31.914 14.381 31.299 14.861 31.179 15.026 C 31.074 15.206 30.669 16.211 30.294 17.246 C 29.919 18.281 29.304 19.901 28.944 20.831 L 29.066 32.452 C 29.066 32.452 29.949 32.531 44.319 32.531 L 62.574 32.531 L 63.414 30.971 C 64.299 29.321 64.404 28.856 63.999 28.241 C 63.864 28.031 63.609 26.966 63.429 25.886 C 63.234 24.791 62.919 23.321 62.694 22.601 C 62.244 21.131 61.959 20.801 60.234 19.796 L 59.199 19.196 L 58.194 16.631 C 57.624 15.221 56.994 13.856 56.784 13.601 C 56.559 13.346 55.944 12.926 55.404 12.686 C 54.864 12.446 53.724 11.726 52.839 11.081 C 50.694 9.491 49.314 8.621 47.979 7.976 C 46.794 7.421 45.969 7.301 44.154 7.421 Z M 48.849 20.516 C 49.824 20.996 50.754 21.956 51.384 23.186 C 52.104 24.551 52.359 25.481 52.629 27.806 C 52.929 30.446 52.929 31.271 52.599 31.421 C 51.909 31.736 41.814 31.586 41.484 31.271 C 41.439 31.211 41.469 30.101 41.574 28.796 C 41.949 23.846 43.104 21.281 45.384 20.351 C 46.299 19.976 47.904 20.051 48.849 20.516 Z" style="stroke: rgb(255, 255, 255); fill: rgb(255, 255, 255);" fill="#000000" stroke="none"/>
  <rect style="stroke: rgb(255, 255, 255); fill: rgb(255, 255, 255);" x="25.306" y="22.728" width="1.138" height="9.821" rx="0.6" ry="0.6"/>
  <rect style="stroke: rgb(255, 255, 255); fill: rgb(255, 255, 255);" x="21.668" y="24.985" width="1.138" height="7.551" rx="0.6" ry="0.6"/>
  <rect style="stroke: rgb(255, 255, 255); fill: rgb(255, 255, 255);" x="18.03" y="27.246" width="1.138" height="5.281" rx="0.6" ry="0.6"/>
  <rect style="stroke: rgb(255, 255, 255); fill: rgb(255, 255, 255);" x="10.754" y="25.001" width="1.138" height="7.551" rx="0.6" ry="0.6"/>
  <rect style="stroke: rgb(255, 255, 255); fill: rgb(255, 255, 255);" x="14.392" y="27.239" width="1.138" height="5.281" rx="0.6" ry="0.6"/>
</svg>