<?xml version="1.0" encoding="utf-8"?>
<svg version="1.0" preserveAspectRatio="xMinYMin" viewBox="-0.01 -0.05 75 40.03" xmlns="http://www.w3.org/2000/svg" xmlns:bx="https://boxy-svg.com">
  <defs>
    <linearGradient id="gradient-1" bx:pinned="true">
      <stop offset="0" style="stop-color: rgb(255, 92, 0);"/>
      <stop offset="1" style="stop-color: rgb(212, 21, 0);"/>
    </linearGradient>
  </defs>
  <path d="M 44.154 7.406 C 42.159 7.541 40.239 7.796 39.024 8.081 C 37.809 8.366 37.659 8.441 37.074 9.101 C 36.714 9.491 35.979 10.451 35.424 11.231 C 34.239 12.896 34.089 13.046 32.559 13.976 C 31.914 14.366 31.299 14.846 31.179 15.011 C 31.074 15.191 30.669 16.196 30.294 17.231 C 29.919 18.266 29.304 19.886 28.944 20.816 L 29.066 32.437 C 29.066 32.437 29.949 32.516 44.319 32.516 L 62.574 32.516 L 63.414 30.956 C 64.299 29.306 64.404 28.841 63.999 28.226 C 63.864 28.016 63.609 26.951 63.429 25.871 C 63.234 24.776 62.919 23.306 62.694 22.586 C 62.244 21.116 61.959 20.786 60.234 19.781 L 59.199 19.181 L 58.194 16.616 C 57.624 15.206 56.994 13.841 56.784 13.586 C 56.559 13.331 55.944 12.911 55.404 12.671 C 54.864 12.431 53.724 11.711 52.839 11.066 C 50.694 9.476 49.314 8.606 47.979 7.961 C 46.794 7.406 45.969 7.286 44.154 7.406 Z M 48.849 20.501 C 49.824 20.981 50.754 21.941 51.384 23.171 C 52.104 24.536 52.359 25.466 52.629 27.791 C 52.929 30.431 52.929 31.256 52.599 31.406 C 51.909 31.721 41.814 31.571 41.484 31.256 C 41.439 31.196 41.469 30.086 41.574 28.781 C 41.949 23.831 43.104 21.266 45.384 20.336 C 46.299 19.961 47.904 20.036 48.849 20.501 Z" style="fill: rgb(195, 195, 195); stroke: rgb(195, 195, 195);"/>
  <rect style="fill: rgb(195, 195, 195); stroke: rgb(195, 195, 195);" x="18.03" y="27.231" width="1.138" height="5.281" rx="0.6" ry="0.6"/>
  <rect style="fill: rgb(195, 195, 195); stroke: rgb(195, 195, 195);" x="10.754" y="22.704" width="1.138" height="9.821" rx="0.6" ry="0.6"/>
  <rect style="fill: rgb(195, 195, 195); stroke: rgb(195, 195, 195);" x="14.392" y="24.956" width="1.138" height="7.551" rx="0.6" ry="0.6"/>
  <rect style="fill: rgb(195, 195, 195); stroke: rgb(195, 195, 195);" x="21.668" y="27.278" width="1.138" height="5.281" rx="0.6" ry="0.6"/>
  <rect style="fill: rgb(195, 195, 195); stroke: rgb(195, 195, 195);" x="25.306" y="25.004" width="1.138" height="7.551" rx="0.6" ry="0.6"/>
</svg>