<?xml version="1.0" encoding="utf-8"?>
<svg version="1.0" preserveAspectRatio="xMinYMin" viewBox="-0.01 -0.05 75 40.03" xmlns="http://www.w3.org/2000/svg" xmlns:bx="https://boxy-svg.com">
  <defs>
    <linearGradient id="gradient-1" bx:pinned="true">
      <stop offset="0" style="stop-color: rgb(255, 92, 0);"/>
      <stop offset="1" style="stop-color: rgb(212, 21, 0);"/>
    </linearGradient>
  </defs>
  <path d="M 44.154 7.41 C 42.159 7.545 40.239 7.8 39.024 8.085 C 37.809 8.37 37.659 8.445 37.074 9.105 C 36.714 9.495 35.979 10.455 35.424 11.235 C 34.239 12.9 34.089 13.05 32.559 13.98 C 31.914 14.37 31.299 14.85 31.179 15.015 C 31.074 15.195 30.669 16.2 30.294 17.235 C 29.919 18.27 29.304 19.89 28.944 20.82 L 29.066 32.441 C 29.066 32.441 29.949 32.52 44.319 32.52 L 62.574 32.52 L 63.414 30.96 C 64.299 29.31 64.404 28.845 63.999 28.23 C 63.864 28.02 63.609 26.955 63.429 25.875 C 63.234 24.78 62.919 23.31 62.694 22.59 C 62.244 21.12 61.959 20.79 60.234 19.785 L 59.199 19.185 L 58.194 16.62 C 57.624 15.21 56.994 13.845 56.784 13.59 C 56.559 13.335 55.944 12.915 55.404 12.675 C 54.864 12.435 53.724 11.715 52.839 11.07 C 50.694 9.48 49.314 8.61 47.979 7.965 C 46.794 7.41 45.969 7.29 44.154 7.41 Z M 48.849 20.505 C 49.824 20.985 50.754 21.945 51.384 23.175 C 52.104 24.54 52.359 25.47 52.629 27.795 C 52.929 30.435 52.929 31.26 52.599 31.41 C 51.909 31.725 41.814 31.575 41.484 31.26 C 41.439 31.2 41.469 30.09 41.574 28.785 C 41.949 23.835 43.104 21.27 45.384 20.34 C 46.299 19.965 47.904 20.04 48.849 20.505 Z" style="fill: rgb(195, 195, 195); stroke: rgb(195, 195, 195);"/>
  <rect style="fill: rgb(195, 195, 195); stroke: rgb(195, 195, 195);" x="10.754" y="22.717" width="1.138" height="9.821" rx="0.6" ry="0.6"/>
  <rect style="fill: rgb(195, 195, 195); stroke: rgb(195, 195, 195);" x="21.668" y="27.235" width="1.138" height="5.281" rx="0.6" ry="0.6"/>
  <rect style="fill: rgb(195, 195, 195); stroke: rgb(195, 195, 195);" x="14.392" y="22.708" width="1.138" height="9.821" rx="0.6" ry="0.6"/>
  <rect style="fill: rgb(195, 195, 195); stroke: rgb(195, 195, 195);" x="18.03" y="24.96" width="1.138" height="7.551" rx="0.6" ry="0.6"/>
  <rect style="fill: rgb(195, 195, 195); stroke: rgb(195, 195, 195);" x="25.306" y="27.282" width="1.138" height="5.281" rx="0.6" ry="0.6"/>
</svg>