<?xml version="1.0" encoding="utf-8"?>
<svg version="1.0" preserveAspectRatio="xMinYMin" viewBox="-0.01 -0.05 75 40.03" xmlns="http://www.w3.org/2000/svg" xmlns:bx="https://boxy-svg.com">
  <defs>
    <linearGradient id="gradient-1" bx:pinned="true">
      <stop offset="0" style="stop-color: rgb(255, 92, 0);"/>
      <stop offset="1" style="stop-color: rgb(212, 21, 0);"/>
    </linearGradient>
  </defs>
  <path d="M 44.154 7.422 C 42.159 7.557 40.239 7.812 39.024 8.097 C 37.809 8.382 37.659 8.457 37.074 9.117 C 36.714 9.507 35.979 10.467 35.424 11.247 C 34.239 12.912 34.089 13.062 32.559 13.992 C 31.914 14.382 31.299 14.862 31.179 15.027 C 31.074 15.207 30.669 16.212 30.294 17.247 C 29.919 18.282 29.304 19.902 28.944 20.832 L 29.066 32.453 C 29.066 32.453 29.949 32.532 44.319 32.532 L 62.574 32.532 L 63.414 30.972 C 64.299 29.322 64.404 28.857 63.999 28.242 C 63.864 28.032 63.609 26.967 63.429 25.887 C 63.234 24.792 62.919 23.322 62.694 22.602 C 62.244 21.132 61.959 20.802 60.234 19.797 L 59.199 19.197 L 58.194 16.632 C 57.624 15.222 56.994 13.857 56.784 13.602 C 56.559 13.347 55.944 12.927 55.404 12.687 C 54.864 12.447 53.724 11.727 52.839 11.082 C 50.694 9.492 49.314 8.622 47.979 7.977 C 46.794 7.422 45.969 7.302 44.154 7.422 Z M 48.849 20.517 C 49.824 20.997 50.754 21.957 51.384 23.187 C 52.104 24.552 52.359 25.482 52.629 27.807 C 52.929 30.447 52.929 31.272 52.599 31.422 C 51.909 31.737 41.814 31.587 41.484 31.272 C 41.439 31.212 41.469 30.102 41.574 28.797 C 41.949 23.847 43.104 21.282 45.384 20.352 C 46.299 19.977 47.904 20.052 48.849 20.517 Z" style="fill: rgb(195, 195, 195); stroke: rgb(195, 195, 195);"/>
  <rect style="fill: rgb(195, 195, 195); stroke: rgb(195, 195, 195);" x="25.306" y="22.729" width="1.138" height="9.821" rx="0.6" ry="0.6"/>
  <rect style="fill: rgb(195, 195, 195); stroke: rgb(195, 195, 195);" x="21.668" y="24.986" width="1.138" height="7.551" rx="0.6" ry="0.6"/>
  <rect style="fill: rgb(195, 195, 195); stroke: rgb(195, 195, 195);" x="18.03" y="27.247" width="1.138" height="5.281" rx="0.6" ry="0.6"/>
  <rect style="fill: rgb(195, 195, 195); stroke: rgb(195, 195, 195);" x="14.392" y="27.24" width="1.138" height="5.281" rx="0.6" ry="0.6"/>
  <rect style="fill: rgb(195, 195, 195); stroke: rgb(195, 195, 195);" x="10.754" y="25" width="1.138" height="7.551" rx="0.6" ry="0.6"/>
</svg>